<svg width="310" height="74" viewBox="0 0 310 74" fill="none" xmlns="http://www.w3.org/2000/svg">
<rect width="309.139" height="74" fill="#CC8B86"/>
<path d="M76.3892 44.16C80.6492 44.16 83.8092 41.12 83.8092 37C83.8092 32.88 80.6492 29.84 76.3892 29.84C72.0892 29.84 68.9292 32.9 68.9292 37C68.9292 41.1 72.0892 44.16 76.3892 44.16ZM76.3892 42.38C73.2492 42.38 70.9292 40.1 70.9292 37C70.9292 33.9 73.2492 31.62 76.3892 31.62C79.4892 31.62 81.8092 33.9 81.8092 37C81.8092 40.1 79.4892 42.38 76.3892 42.38ZM91.3424 44.12C93.2424 44.12 94.8224 43.32 95.6624 41.84L94.2024 40.92C93.5224 41.96 92.4824 42.44 91.3224 42.44C89.2424 42.44 87.6824 41 87.6824 38.7C87.6824 36.44 89.2424 34.98 91.3224 34.98C92.4824 34.98 93.5224 35.46 94.2024 36.5L95.6624 35.56C94.8224 34.08 93.2424 33.3 91.3424 33.3C88.0824 33.3 85.7424 35.54 85.7424 38.7C85.7424 41.86 88.0824 44.12 91.3424 44.12ZM105.911 33.4H96.2314V35.08H100.111V44H102.031V35.08H105.911V33.4ZM111.655 33.3C109.955 33.3 108.375 33.78 107.275 34.66L108.075 36.1C108.895 35.4 110.175 34.96 111.435 34.96C113.335 34.96 114.275 35.9 114.275 37.52V37.9H111.235C108.075 37.9 106.975 39.3 106.975 41C106.975 42.84 108.495 44.12 110.895 44.12C112.555 44.12 113.735 43.56 114.375 42.6V44H116.195V37.6C116.195 34.7 114.555 33.3 111.655 33.3ZM111.215 42.64C109.755 42.64 108.875 41.98 108.875 40.92C108.875 40.02 109.415 39.28 111.315 39.28H114.275V40.76C113.795 41.98 112.655 42.64 111.215 42.64ZM126.872 38.5C127.932 38.08 128.572 37.26 128.572 36.12C128.572 34.38 127.072 33.4 124.572 33.4H119.652V44H124.752C127.572 44 128.932 42.92 128.932 41.08C128.932 39.74 128.272 38.86 126.872 38.5ZM121.532 34.88H124.412C125.872 34.88 126.652 35.38 126.652 36.4C126.652 37.42 125.872 37.96 124.412 37.96H121.532V34.88ZM124.612 42.52H121.532V39.34H124.732C126.312 39.34 127.012 39.86 127.012 40.96C127.012 42.04 126.192 42.52 124.612 42.52ZM131.937 44H133.697L140.177 36.28V44H142.097V33.4H140.357L133.857 41.12V33.4H131.937V44ZM153.724 33.4H144.044V35.08H147.924V44H149.844V35.08H153.724V33.4ZM160.587 37L157.607 36.98V33.4H155.687V44L160.287 44.02C163.127 44.04 164.727 42.76 164.727 40.46C164.727 38.28 163.287 37.02 160.587 37ZM160.127 42.56L157.607 42.54V38.38L160.127 38.42C161.887 38.44 162.767 39.04 162.767 40.44C162.767 41.86 161.867 42.58 160.127 42.56ZM178.302 38.48C179.462 38.06 180.222 37.2 180.222 36.14C180.222 34.42 178.322 33.26 175.742 33.26C174.382 33.26 173.062 33.54 171.682 34.24L172.202 35.72C173.362 35.18 174.462 34.9 175.542 34.9C177.162 34.9 178.242 35.46 178.242 36.42C178.242 37.32 177.342 37.84 175.922 37.84H174.122V39.22H176.062C177.622 39.22 178.542 39.78 178.542 40.76C178.542 41.84 177.362 42.5 175.562 42.5C174.262 42.5 172.862 42.14 171.842 41.48L171.262 42.94C172.442 43.7 174.002 44.14 175.582 44.14C178.402 44.14 180.522 42.84 180.522 40.92C180.522 39.7 179.722 38.84 178.302 38.48ZM187.221 33.3C185.521 33.3 183.941 33.78 182.841 34.66L183.641 36.1C184.461 35.4 185.741 34.96 187.001 34.96C188.901 34.96 189.841 35.9 189.841 37.52V37.9H186.801C183.641 37.9 182.541 39.3 182.541 41C182.541 42.84 184.061 44.12 186.461 44.12C188.121 44.12 189.301 43.56 189.941 42.6V44H191.761V37.6C191.761 34.7 190.121 33.3 187.221 33.3ZM186.781 42.64C185.321 42.64 184.441 41.98 184.441 40.92C184.441 40.02 184.981 39.28 186.881 39.28H189.841V40.76C189.361 41.98 188.221 42.64 186.781 42.64ZM199.078 33.4C196.238 33.4 194.418 34.66 194.418 37.12C194.418 38.8 195.318 39.9 196.898 40.38L194.318 44H196.378L198.698 40.64H198.918H201.998V44H203.718V33.4H199.078ZM196.378 37.18C196.378 35.7 197.378 35.08 199.138 35.08H201.998V39.26H199.058C197.278 39.26 196.378 38.6 196.378 37.18ZM214.685 38.5C215.745 38.08 216.385 37.26 216.385 36.12C216.385 34.38 214.885 33.4 212.385 33.4H207.465V44H212.565C215.385 44 216.745 42.92 216.745 41.08C216.745 39.74 216.085 38.86 214.685 38.5ZM209.345 34.88H212.225C213.685 34.88 214.465 35.38 214.465 36.4C214.465 37.42 213.685 37.96 212.225 37.96H209.345V34.88ZM212.425 42.52H209.345V39.34H212.545C214.125 39.34 214.825 39.86 214.825 40.96C214.825 42.04 214.005 42.52 212.425 42.52ZM227.43 44H229.69L225.39 38.5L229.41 33.4H227.35L223.91 37.88H221.67V33.4H219.75V44H221.67V39.52H223.87L227.43 44ZM238.677 33.4L235.017 41.88L231.317 33.4H229.317L233.997 43.98L233.657 44.72C233.137 45.94 232.557 46.36 231.637 46.36C230.917 46.36 230.257 46.08 229.737 45.58L228.917 47.02C229.577 47.66 230.617 48 231.637 48C233.257 48 234.477 47.3 235.417 45.06L240.557 33.4H238.677Z" fill="#533738"/>
</svg>
